<svg width="46" height="39" viewBox="0 0 46 39" fill="none" xmlns="http://www.w3.org/2000/svg">
<path d="M42.9849 30.6458C42.3772 30.6458 41.8681 30.4331 41.4577 30.0079C41.0459 29.5841 40.84 29.0584 40.84 28.4309V15.3632L23.6267 25.0532C23.305 25.2378 22.974 25.3759 22.6336 25.4674C22.2947 25.5604 21.9287 25.6069 21.5354 25.6069C21.1422 25.6069 20.7761 25.5604 20.4372 25.4674C20.0969 25.3759 19.7658 25.2378 19.4441 25.0532L1.37286 14.8649C1.01537 14.6803 0.738674 14.4123 0.542769 14.0609C0.345433 13.7109 0.246765 13.3329 0.246765 12.9269C0.246765 12.5208 0.345433 12.1428 0.542769 11.7928C0.738674 11.4414 1.01537 11.1734 1.37286 10.9888L19.4977 0.800481C19.8195 0.615909 20.1498 0.47711 20.4887 0.384086C20.829 0.292539 21.1779 0.246765 21.5354 0.246765C21.8929 0.246765 22.2418 0.292539 22.5821 0.384086C22.9211 0.47711 23.2514 0.615909 23.5731 0.800481L44.0038 12.3178C44.3613 12.5023 44.6387 12.7696 44.836 13.1195C45.0319 13.471 45.1299 13.8497 45.1299 14.2558V28.4309C45.1299 29.0584 44.924 29.5841 44.5121 30.0079C44.1017 30.4331 43.5927 30.6458 42.9849 30.6458ZM21.5354 38.8961C21.1779 38.8961 20.829 38.8503 20.4887 38.7588C20.1498 38.6658 19.8195 38.527 19.4977 38.3424L8.77295 32.3623C8.05796 31.9562 7.50385 31.4121 7.11061 30.7299C6.71737 30.0463 6.52075 29.2799 6.52075 28.4309V20.0144L18.6934 26.8251C19.1581 27.0835 19.6228 27.3139 20.0876 27.5162C20.5523 27.7199 21.0349 27.8218 21.5354 27.8218C22.0359 27.8218 22.5278 27.7111 23.0111 27.4896C23.493 27.2681 23.9664 27.0281 24.4311 26.7697L36.5501 20.0144V28.4309C36.5501 29.2799 36.3535 30.0463 35.9602 30.7299C35.567 31.4121 35.0129 31.9562 34.2979 32.3623L23.5731 38.3424C23.2514 38.527 22.9211 38.6658 22.5821 38.7588C22.2418 38.8503 21.8929 38.8961 21.5354 38.8961Z" fill="#3DB7CA"/>
</svg>
